<?xml version="1.0" encoding="UTF-8" standalone="no"?>
<!-- Created with Inkscape (http://www.inkscape.org/) -->

<svg
   width="210mm"
   height="297mm"
   viewBox="0 0 210 297"
   version="1.1"
   id="svg2254"
   xml:space="preserve"
   inkscape:version="1.2.2 (732a01da63, 2022-12-09)"
   sodipodi:docname="logo.svg"
   xmlns:inkscape="http://www.inkscape.org/namespaces/inkscape"
   xmlns:sodipodi="http://sodipodi.sourceforge.net/DTD/sodipodi-0.dtd"
   xmlns="http://www.w3.org/2000/svg"
   xmlns:svg="http://www.w3.org/2000/svg"><sodipodi:namedview
     id="namedview2256"
     pagecolor="#ffffff"
     bordercolor="#000000"
     borderopacity="0.25"
     inkscape:showpageshadow="2"
     inkscape:pageopacity="0.0"
     inkscape:pagecheckerboard="0"
     inkscape:deskcolor="#d1d1d1"
     inkscape:document-units="mm"
     showgrid="true"
     inkscape:zoom="0.14166656"
     inkscape:cx="1863.5308"
     inkscape:cy="-137.64716"
     inkscape:window-width="1440"
     inkscape:window-height="830"
     inkscape:window-x="-6"
     inkscape:window-y="-6"
     inkscape:window-maximized="1"
     inkscape:current-layer="layer1"><inkscape:grid
       type="xygrid"
       id="grid2258" /></sodipodi:namedview><defs
     id="defs2251"><rect
       x="-2473.3485"
       y="428.07954"
       width="775.29961"
       height="627.84999"
       id="rect2421" /><rect
       x="-2387.7326"
       y="42.807954"
       width="951.28787"
       height="780.05605"
       id="rect2411" /><rect
       x="-2235.5265"
       y="199.77045"
       width="1084.4682"
       height="466.13106"
       id="rect2397" /><rect
       x="-1835.9856"
       y="261.60416"
       width="175.98826"
       height="252.09129"
       id="rect2387" /><rect
       x="-1374.611"
       y="-266.3606"
       width="561.25984"
       height="366.24583"
       id="rect2371" /><rect
       x="-1726.5875"
       y="-337.70719"
       width="532.72121"
       height="661.14507"
       id="rect2314" /></defs><g
     inkscape:label="Layer 1"
     inkscape:groupmode="layer"
     id="layer1"><text
       xml:space="preserve"
       transform="scale(0.26458333)"
       id="text2312"
       style="fill:#ff0000;font-size:192px;white-space:pre;shape-inside:url(#rect2314)" /><text
       xml:space="preserve"
       style="font-size:50.8px;fill:#000000;stroke-width:0.264583"
       x="-414.03812"
       y="-56.631355"
       id="text2320"><tspan
         sodipodi:role="line"
         id="tspan2318"
         style="stroke-width:0.264583;fill:#000000"
         x="-414.03812"
         y="-56.631355" /></text><text
       xml:space="preserve"
       transform="scale(0.26458333)"
       id="text2369"
       style="fill:#000000;font-size:192px;white-space:pre;shape-inside:url(#rect2371)" /><text
       xml:space="preserve"
       style="font-size:50.8px;white-space:pre;inline-size:149.076;fill:#000000;stroke-width:0.264583"
       x="-339.78815"
       y="-32.720337"
       id="text2377"><tspan
         x="-339.78815"
         y="-32.720337"
         id="tspan2830"><tspan
           dx="0 32.518944 40.630074 40.630081 40.630081"
           style="font-family:'Bookman Old Style';-inkscape-font-specification:'Bookman Old Style'"
           id="tspan2828">FOOD
</tspan></tspan></text><text
       xml:space="preserve"
       style="font-style:normal;font-variant:normal;font-weight:normal;font-stretch:normal;font-size:56.9043px;font-family:'Bookman Old Style';-inkscape-font-specification:'Bookman Old Style';fill:#000000;stroke-width:0.296376"
       x="17.638577"
       y="137.98154"
       id="text2383"
       transform="scale(1.0442084,0.95766326)"><tspan
         sodipodi:role="line"
         id="tspan2381"
         style="stroke-width:0.296376"
         x="17.638577"
         y="137.98154">F</tspan></text><text
       xml:space="preserve"
       transform="scale(0.26458333)"
       id="text2385"
       style="fill:#000000;font-size:192px;-inkscape-font-specification:'Bookman Old Style';font-family:'Bookman Old Style';font-weight:normal;font-style:normal;font-stretch:normal;font-variant:normal;white-space:pre;shape-inside:url(#rect2387)" /><text
       xml:space="preserve"
       style="font-style:normal;font-variant:normal;font-weight:normal;font-stretch:normal;font-size:50.8px;font-family:'Bookman Old Style';-inkscape-font-specification:'Bookman Old Style';fill:#000000;stroke-width:0.264583"
       x="17.618668"
       y="169.89406"
       id="text2393"><tspan
         sodipodi:role="line"
         id="tspan2391"
         style="stroke-width:0.264583"
         x="17.618668"
         y="169.89406">B</tspan></text><text
       xml:space="preserve"
       transform="scale(0.26458333)"
       id="text2395"
       style="fill:#000000;font-size:192px;-inkscape-font-specification:'Bookman Old Style';font-family:'Bookman Old Style';font-weight:normal;font-style:normal;font-stretch:normal;font-variant:normal;white-space:pre;shape-inside:url(#rect2397)" /><text
       xml:space="preserve"
       style="font-style:normal;font-variant:normal;font-weight:normal;font-stretch:normal;font-size:83.9546px;font-family:'Bookman Old Style';-inkscape-font-specification:'Bookman Old Style';fill:#000000;stroke-width:0.437263"
       x="70.229385"
       y="131.60204"
       id="text2403"
       transform="scale(0.77767825,1.2858788)"><tspan
         sodipodi:role="line"
         id="tspan2401"
         style="stroke-width:0.437263"
         x="70.229385"
         y="131.60204">O</tspan></text><text
       xml:space="preserve"
       style="font-style:normal;font-variant:normal;font-weight:normal;font-stretch:normal;font-size:83.9546px;font-family:'Bookman Old Style';-inkscape-font-specification:'Bookman Old Style';fill:#000000;stroke-width:0.437263"
       x="134.95921"
       y="131.60204"
       id="text2407"
       transform="scale(0.77767826,1.2858788)"><tspan
         sodipodi:role="line"
         id="tspan2405"
         style="stroke-width:0.437263"
         x="134.95921"
         y="131.60204">O</tspan></text><text
       xml:space="preserve"
       transform="scale(0.26458333)"
       id="text2409"
       style="fill:#000000;font-size:192px;-inkscape-font-specification:'Bookman Old Style';font-family:'Bookman Old Style';font-weight:normal;font-style:normal;font-stretch:normal;font-variant:normal;white-space:pre;shape-inside:url(#rect2411)" /><text
       xml:space="preserve"
       style="font-style:normal;font-variant:normal;font-weight:normal;font-stretch:normal;font-size:50.8px;font-family:'Bookman Old Style';-inkscape-font-specification:'Bookman Old Style';fill:#000000;stroke-width:0.264583"
       x="152.27544"
       y="130.88135"
       id="text2417"><tspan
         sodipodi:role="line"
         id="tspan2415"
         style="stroke-width:0.264583"
         x="152.27544"
         y="130.88135">D</tspan></text><text
       xml:space="preserve"
       transform="scale(0.26458333)"
       id="text2419"
       style="fill:#000000;font-size:192px;-inkscape-font-specification:'Bookman Old Style';font-family:'Bookman Old Style';font-weight:normal;font-style:normal;font-stretch:normal;font-variant:normal;white-space:pre;shape-inside:url(#rect2421)" /><text
       xml:space="preserve"
       style="font-style:normal;font-variant:normal;font-weight:normal;font-stretch:normal;font-size:50.8px;font-family:'Bookman Old Style';-inkscape-font-specification:'Bookman Old Style';fill:#000000;stroke-width:0.264583"
       x="152.27542"
       y="168.63559"
       id="text2427"><tspan
         sodipodi:role="line"
         id="tspan2425"
         style="stroke-width:0.264583"
         x="152.27542"
         y="168.63559">K</tspan></text><path
       style="fill:#000000;stroke-width:4.75644"
       d="m 280.93244,610.46344 c -23.03202,-21.4576 -30.962,-49.28732 -30.962,-108.65909 0,-45.63024 1.67348,-58.36535 10.09369,-76.81253 14.08876,-30.86597 26.6166,-42.09845 46.95332,-42.09845 34.85015,0 52.09372,38.57358 52.09372,116.53276 0,55.33933 -7.90203,87.47422 -26.37213,107.24653 -15.90503,17.02638 -36.02,18.49823 -51.8066,3.79078 z"
       id="path2487"
       transform="scale(0.26458333)" /><path
       style="fill:#000000;stroke-width:4.75644"
       d="m 471.19002,610.46344 c -23.03203,-21.4576 -30.962,-49.28732 -30.962,-108.65909 0,-45.63024 1.67348,-58.36535 10.09369,-76.81253 14.08876,-30.86597 26.61659,-42.09845 46.95332,-42.09845 34.85014,0 52.09371,38.57358 52.09371,116.53276 0,55.33933 -7.90203,87.47422 -26.37213,107.24653 -15.90503,17.02638 -36.02,18.49823 -51.80659,3.79078 z"
       id="path2489"
       transform="scale(0.26458333)" /><path
       style="fill:#000000;stroke-width:4.75644"
       d="m 270.68596,628.88645 c -9.81371,-6.61346 -21.56174,-21.87383 -30.06725,-39.05655 -11.91959,-24.07981 -14.27263,-35.23013 -16.09859,-76.28631 -2.50965,-56.42865 5.04851,-89.29089 27.74148,-120.61763 61.89751,-85.44702 152.90654,10.10208 133.55438,140.21686 -12.91764,86.85209 -64.57608,129.81193 -115.13002,95.74363 z m 62.01184,-12.6746 C 357.08756,591.82209 368.305,545.92532 365.15609,483.407 361.54048,411.62272 342.994,378.13693 306.85111,378.13693 c -40.50978,0 -60.68478,39.86431 -61.38343,121.2892 -0.51835,60.41011 5.60087,85.83744 26.34224,109.46056 11.95264,13.61331 17.88272,16.58508 33.09493,16.58508 12.02235,0 21.78605,-3.25302 27.79295,-9.25992 z"
       id="path2491"
       transform="scale(0.26458333)" /><path
       style="fill:#000000;stroke-width:4.75644"
       d=""
       id="path2493"
       transform="scale(0.26458333)" /><path
       style="fill:#000000;stroke-width:4.75644"
       d="m 270.7183,628.90824 c -9.34718,-6.29905 -21.91338,-22.24915 -30.02518,-38.1105 -12.05266,-23.56712 -14.24694,-33.94722 -16.13092,-76.30811 -2.55474,-57.44247 4.87709,-90.05839 27.6994,-121.56367 62.72082,-86.58357 154.25582,12.31538 133.14506,143.85655 -13.49482,84.08631 -65.10279,125.54145 -114.68836,92.12573 z m 61.28477,-13.0873 C 356.6144,592.892 368.82544,542.48411 365.13509,479.05006 361.20516,411.49809 341.9369,378.13693 306.85111,378.13693 c -23.79618,0 -40.67844,15.18843 -52.94377,47.6318 -11.7108,30.97657 -11.86499,117.47046 -0.26883,150.80913 15.09077,43.38563 53.35193,62.54589 78.36456,39.24308 z"
       id="path2495"
       transform="scale(0.26458333)" /><path
       style="fill:#000000;stroke-width:4.75644"
       d="m 270.7183,628.90824 c -9.45109,-6.36908 -21.95114,-22.32297 -30.33565,-38.71758 -12.50873,-24.45887 -14.48208,-33.86307 -16.06205,-76.54503 -2.11052,-57.0145 5.44723,-89.66792 27.941,-120.71967 62.72082,-86.58357 154.25582,12.31538 133.14506,143.85655 -13.49482,84.08631 -65.10279,125.54145 -114.68836,92.12573 z m 63.53602,-16.58408 c 22.1093,-23.07715 29.01951,-49.67471 29.33157,-112.89803 0.21921,-44.41281 -1.64813,-62.07894 -8.41591,-79.61922 -22.72188,-58.88905 -80.26049,-54.78715 -101.33228,7.22393 -10.59223,31.17133 -11.79873,109.9096 -2.19124,143.00327 14.515,49.99789 55.24604,70.84963 82.60786,42.29005 z"
       id="path2497"
       transform="scale(0.26458333)" /><path
       style="fill:#000000;stroke-width:4.75644"
       d="m 270.7183,628.90824 c -9.45109,-6.36908 -21.95114,-22.32297 -30.33565,-38.71758 -12.50873,-24.45887 -14.48208,-33.86307 -16.06205,-76.54503 -2.1064,-56.90317 5.44651,-89.66693 27.77683,-120.49304 63.05739,-87.04819 154.51592,11.49098 133.30923,143.62992 -13.49482,84.08631 -65.10279,125.54145 -114.68836,92.12573 z m 61.53189,-15.46797 c 22.15474,-18.64198 31.43642,-52.26767 31.47128,-114.01414 0.0341,-60.31199 -6.77928,-88.51665 -26.03411,-107.77148 -29.407,-29.407 -71.46232,-8.88354 -85.89955,41.91994 -8.43082,29.66737 -8.43082,106.79216 0,136.45952 3.60167,12.67398 13.42258,30.33226 21.82426,39.24063 18.95092,20.09383 38.09241,21.4536 58.63812,4.16553 z"
       id="path2499"
       transform="scale(0.26458333)" /><path
       style="fill:#000000;stroke-width:0.441177"
       d="m 298.26869,623.59138 c -3.36153,-0.7051 -6.29928,-1.79636 -10.18418,-3.78303 -19.10337,-9.76916 -33.84311,-37.53165 -39.44397,-74.29324 -2.19609,-14.41415 -2.63706,-21.58235 -2.64621,-43.01473 -0.009,-20.83595 0.42883,-28.49091 2.4083,-42.11684 3.77875,-26.01152 11.70425,-47.95111 22.35748,-61.89059 1.90239,-2.48922 1.97991,-2.53677 4.13618,-2.53677 h 2.19746 l -2.63681,3.41912 c -3.99361,5.17847 -7.22199,10.55415 -11.51395,19.17225 -11.2921,22.6741 -12.96826,32.85615 -12.98508,78.87929 -0.009,25.29792 0.31142,33.78481 1.76691,46.76474 3.34839,29.86052 11.13193,48.57107 26.61897,63.98837 8.95427,8.91393 16.19511,12.34794 26.1317,12.39308 11.88271,0.054 22.97167,-6.24366 32.34025,-18.3667 12.10315,-15.6616 18.04711,-34.82633 21.28256,-68.62005 0.99739,-10.41752 1.15127,-54.95073 0.22556,-65.27711 -3.11206,-34.71551 -9.06463,-55.82782 -19.6254,-69.60649 l -2.14206,-2.79475 2.30326,0.13442 2.30326,0.13442 2.94144,4.88815 c 1.61779,2.68849 3.89519,7.05614 5.06088,9.70589 5.43238,12.34839 10.5622,32.10439 12.78827,49.25036 2.06142,15.87771 1.77975,65.23334 -0.46022,80.641 -2.81261,19.34661 -9.439,41.21515 -16.56523,54.66893 -7.55329,14.26 -16.82686,23.14262 -28.18703,26.99873 -3.7802,1.28315 -4.74096,1.42645 -10.34374,1.54278 -3.39706,0.0705 -7.05493,-0.056 -8.1286,-0.28123 z"
       id="path2501"
       transform="scale(0.26458333)" /><path
       style="fill:#000000;stroke-width:0.441177"
       d="m 295.36787,622.56093 c -7.63503,-2.47971 -15.72082,-7.93617 -21.19601,-14.30351 -14.32861,-16.66337 -23.15858,-41.38811 -26.97639,-75.53643 -1.11825,-10.00217 -1.11686,-50.90123 0.002,-60.8824 3.37848,-30.13695 10.3886,-53.23885 20.951,-69.04417 3.79722,-5.68208 4.39708,-6.27839 6.67545,-6.6361 l 1.95615,-0.30712 -1.63827,2.14808 c -4.33086,5.67857 -8.2612,12.21813 -12.42738,20.6775 -8.19153,16.63279 -10.65553,25.35667 -12.14925,43.01474 -0.71988,8.51012 -1.04462,51.08206 -0.48139,63.10786 1.30145,27.7876 4.92588,45.9636 12.20449,61.20374 4.1547,8.69921 8.29503,14.48472 15.79395,22.06976 9.25137,9.35762 16.08885,12.58778 26.55028,12.54287 10.63974,-0.0457 20.17507,-4.63494 28.46874,-13.70172 11.33297,-12.38941 18.3715,-28.46722 22.24386,-50.81067 2.97103,-17.14281 3.75055,-29.21999 3.75877,-58.23534 0.006,-21.43097 -0.40351,-30.28313 -1.96979,-42.57356 -3.27078,-25.66544 -8.71874,-43.4698 -16.70913,-54.60675 -1.29083,-1.79914 -2.48868,-3.50047 -2.6619,-3.78075 -0.21807,-0.35285 0.22679,-0.5096 1.44618,-0.5096 1.73505,0 1.79352,0.0539 3.94772,3.6397 5.80898,9.66938 9.62303,19.36939 13.48738,34.3015 5.50721,21.28019 6.75537,35.23572 6.29356,70.3677 -0.34502,26.24721 -0.82599,32.64115 -3.43483,45.6618 -3.20074,15.97483 -8.30877,31.7786 -13.81484,42.74183 -7.25588,14.44732 -16.13203,23.72358 -26.90169,28.11432 -4.91255,2.00283 -7.21946,2.38281 -14.32454,2.35946 -5.01096,-0.0165 -6.51759,-0.18591 -9.0942,-1.02274 z"
       id="path2503"
       transform="scale(0.26458333)" /><path
       style="fill:#000000;stroke-width:0.441177"
       d=""
       id="path2505"
       transform="scale(0.26458333)" /><path
       style="fill:#000000;stroke-width:0.0389949"
       d="m 304.04315,624.40211 c -8.93666,-0.29512 -17.18631,-3.68345 -24.68589,-10.13907 -1.51525,-1.30433 -3.62897,-3.36007 -4.94763,-4.81193 -3.50183,-3.85554 -6.66826,-8.23439 -9.50975,-13.15102 l -0.43383,-0.75065 h 0.16524 0.16523 l 0.23156,0.39969 c 5.17347,8.92991 11.18899,15.92069 17.76564,20.64584 2.88795,2.07492 6.31442,3.92484 9.88242,5.33544 1.77275,0.70085 3.84531,1.32759 5.45928,1.65087 1.20532,0.24142 3.56109,0.3387 7.37003,0.30432 4.43123,-0.04 6.11671,-0.15524 7.87436,-0.53842 1.52533,-0.33254 4.24449,-1.24735 6.2223,-2.09338 0.96109,-0.41112 2.77672,-1.29953 3.66552,-1.79358 l 0.56542,-0.31431 0.0122,0.159 c 0.007,0.0874 -0.002,0.17313 -0.0195,0.19041 -0.091,0.0901 -1.30856,0.75551 -2.05948,1.12558 -4.32943,2.13365 -8.70269,3.32461 -13.60921,3.70619 -0.5228,0.0407 -2.71078,0.12097 -3.02211,0.11094 -0.0965,-0.003 -0.58785,-0.0193 -1.09185,-0.0359 z"
       id="path2507"
       transform="scale(0.26458333)" /><path
       style="fill:#000000;stroke-width:0.0389949"
       d="m 299.40275,620.19274 c -6.98999,-1.03031 -12.77824,-4.17523 -19.6338,-10.66763 -0.80299,-0.76045 -2.83839,-2.81052 -3.61597,-3.64203 -2.89424,-3.09497 -5.48795,-6.32477 -7.80528,-9.71948 -0.38217,-0.55985 -0.41091,-0.61416 -0.325,-0.61416 0.0763,0 0.14485,0.0762 0.35963,0.39969 1.61781,2.43676 3.95773,5.46349 6.21767,8.0427 2.56444,2.92672 5.94945,6.28054 8.32741,8.2507 5.22478,4.32875 10.9028,6.99586 16.96278,7.96786 0.32171,0.0516 0.51473,0.094 0.42894,0.0941 -0.0858,1.5e-4 -0.49816,-0.0501 -0.91638,-0.11178 z"
       id="path2509"
       transform="scale(0.26458333)" /><path
       style="fill:#000000;stroke-width:1.24784"
       d=""
       id="path2511"
       transform="scale(0.26458333)" /><path
       style="fill:#000000;stroke-width:1.24784"
       d=""
       id="path2513"
       transform="scale(0.26458333)" /><path
       style="fill:#000000;stroke-width:0.264583"
       id="path2515"
       d="m 71.758648,102.57498 c -0.52133,0.8553 -1.01885,1.72505 -1.570948,2.56115 -0.557855,0.72669 -0.92533,1.571 -1.453785,2.31686 -0.377378,0.53217 -0.767479,1.05003 -1.077709,1.62526 -0.46973,0.85 -0.872135,1.73547 -1.297117,2.60866 -0.446532,1.03917 -0.707652,2.1436 -0.992724,3.23454 -0.247169,1.07519 -0.541629,2.13927 -0.774825,3.21755 -0.271997,1.07907 -0.459568,2.17362 -0.566936,3.28045 -0.08247,0.95899 -0.07983,1.92224 -0.077,2.88388 -7.94e-4,1.04861 -0.0027,2.09722 0.0057,3.1458 0.02307,1.40093 0.0092,2.80201 0.0047,4.203 -0.0387,1.33261 0.04586,2.65453 0.273579,3.96703 0.217596,1.10826 0.406154,2.22214 0.618064,3.33137 0.145161,0.9725 0.492813,1.8922 0.756534,2.83357 0.365342,1.18022 0.688559,2.37249 1.029202,3.55982 0.240647,0.93635 0.612376,1.82834 0.97068,2.72344 0.271571,0.798 0.503113,1.60422 0.842211,2.37732 0.302503,0.58319 0.499078,1.20971 0.751829,1.81346 0.616233,1.61273 -0.482364,0.31185 3.664575,1.99823 0.09052,0.0368 -0.135475,-0.14158 -0.193699,-0.22006 -0.07372,-0.0994 -0.13403,-0.208 -0.201044,-0.31201 -0.507878,-0.89287 -0.952188,-1.82019 -1.396251,-2.74597 -0.365382,-0.89084 -0.70694,-1.79078 -1.073166,-2.6813 -0.542163,-1.16978 -1.258131,-2.2455 -1.853194,-3.38752 -0.415809,-0.84821 -0.634328,-1.77115 -0.974331,-2.64844 -0.816859,-1.41592 -2.834868,-3.21853 -4.411488,-2.40114 -0.230571,0.11953 -0.377698,0.27133 -0.569918,0.44136 -0.612889,0.50798 -0.744844,1.20882 -0.833226,1.95914 -0.07045,0.82751 -0.06248,1.65797 -0.06777,2.48752 0.09992,1.69425 0.837342,0.88817 3.663947,2.4083 0.206126,0.11085 0.447717,0.10296 0.662657,0.21893 -5.450552,-3.21597 -3.061862,-2.1105 -2.040017,-0.55815 0.351308,0.56695 0.56475,1.20288 0.810196,1.8197 0.09097,0.1147 0.478068,1.11007 0.549167,1.14466 3.718668,1.80924 3.31434,2.91335 3.728813,1.28097 0.110646,-0.80061 0.113548,-1.61129 0.120927,-2.41805 -0.0099,-0.55734 -0.153961,-1.08526 -0.524523,-1.50427 -0.428347,-1.61144 0.447241,-0.60071 -3.664193,-1.92936 -0.113501,-0.0367 -0.0084,0.23842 -0.01058,0.35768 -0.0043,0.23825 -0.0026,0.55153 -0.0021,0.78914 -0.0288,0.77234 0.01871,1.51989 0.305715,2.24133 0.273902,0.64633 0.742254,1.15593 1.204394,1.66968 0.518139,0.51423 0.897993,1.13971 1.357919,1.7019 4.696965,3.78364 4.068952,1.59622 2.817878,-0.18821 -1.212657,-1.29837 -2.969712,-1.95785 -4.493704,-2.79212 -0.375412,-0.20551 -0.598316,-0.20355 -0.933493,0.0152 -0.361492,0.63024 -0.09698,1.34772 0.136785,1.97957 0.233751,0.52512 0.543554,1.0153 0.839456,1.50822 0.273905,0.44534 0.725279,0.72903 1.140826,1.02866 0.466984,0.39806 0.868698,0.86321 1.323961,1.27414 0.511136,0.47457 0.949823,1.01504 1.385861,1.55703 0.33492,0.4735 1.016283,1.05612 0.940676,1.70022 -0.03091,0.008 -0.06339,0.0348 -0.09273,0.0225 -0.06763,-0.0283 -0.113046,-0.0938 -0.174194,-0.13429 -0.09133,-0.0604 -0.378005,-0.22126 -0.282432,-0.1678 1.027382,0.57467 2.046912,1.16342 3.077956,1.73151 0.215596,0.11879 -0.406051,-0.27884 -0.600866,-0.4293 -0.586938,-0.54352 -0.960083,-1.2551 -1.209297,-2.00547 -0.07007,-0.0896 -0.285466,-1.00197 -0.355481,-1.03617 -3.692519,-1.80382 -3.412971,-2.95118 -3.669971,-1.36591 0.209116,1.11019 0.986427,1.97825 1.739373,2.77348 0.663004,0.62851 1.413436,1.1527 2.117246,1.73293 0.807628,0.69363 1.551683,1.45496 2.353342,2.15535 1.391031,1.13032 3.039758,1.87882 4.621099,2.7132 0.444534,0.23455 1.057534,0.30021 1.538602,0.44575 0.753239,0.13868 1.365588,0.60165 2.074108,0.8511 0.680437,0.22974 1.344406,0.21192 2.023817,0.006 0.687398,-0.27984 1.251862,-0.75926 1.799905,-1.24603 0.489619,-0.5269 0.962784,-1.06803 1.382746,-1.65298 0.320591,-0.53114 0.739894,-0.9901 1.099603,-1.49223 -0.02037,0.1267 0.16341,-0.28506 0.236395,-0.20925 0.03213,0.0334 0.04031,0.16078 -5.29e-4,0.13898 -1.14187,-0.60899 -2.224029,-1.32581 -3.366056,-1.93451 -0.04252,-0.0227 0.01717,0.0972 0.0074,0.14434 -0.01183,0.0573 -0.04696,0.10719 -0.07044,0.16078 -0.363363,0.66838 -1.042469,0.86915 -1.710669,1.12338 -0.678312,0.28819 -1.441508,0.28047 -2.131441,0.51944 -0.15816,0.0548 -0.741498,0.34426 -0.903499,0.4232 -0.789102,0.3521 -1.591932,0.66662 -2.403745,0.96198 -0.645872,0.22711 -1.327018,0.27992 -2.005293,0.30819 -0.731417,0.11331 -1.075185,-0.17546 -1.67104,-0.51204 6.383444,3.25122 3.215071,2.15607 2.30904,1.20331 -0.133501,-0.14039 -0.350073,-0.4449 -0.461375,-0.59583 -0.418769,-0.68654 -0.84069,-1.36272 -1.34665,-1.98951 -1.020336,-1.26482 -3.313649,-3.60714 -4.659063,-2.86001 -0.04657,0.12894 -0.125736,0.25045 -0.139695,0.38683 -0.05332,0.52087 0.968396,1.62239 1.269143,1.98909 1.682252,2.14149 2.72642,2.35348 5.507942,3.92101 0.778854,0.18795 1.593495,0.14514 2.38937,0.14148 0.908717,-0.0329 1.804104,-0.0178 2.705256,0.0953 0.81769,0.11342 1.640361,0.17762 2.465218,0.20087 0.77891,0.048 1.560812,-0.0445 2.31013,-0.25915 0.767583,-0.26737 1.429282,-0.70078 2.0583,-1.20562 0.729594,-0.47186 1.342953,-1.08199 1.984367,-1.66131 0.622943,-0.56682 1.124627,-1.28069 1.537216,-2.01314 0.368895,-0.61274 0.599209,-1.27579 0.820523,-1.9502 0.180298,-0.6631 0.405455,-1.30856 0.656368,-1.94776 0.212042,-0.64266 0.409276,-1.28967 0.619842,-1.93291 0.226964,-0.55581 0.335116,-1.1505 0.588369,-1.69546 0.266544,-0.56809 0.505429,-1.15228 0.67836,-1.7559 0.262102,-0.74222 0.340884,-1.52639 0.568079,-2.27698 0.193596,-0.71585 0.514549,-1.38632 0.739386,-2.09068 0.303705,-0.93685 0.603062,-1.87397 0.914649,-2.80933 0.441785,-1.14674 0.874075,-2.29536 1.1274,-3.49997 0.1377,-0.71759 0.154501,-1.44882 0.160996,-2.17699 -0.0033,-0.6834 -0.0024,-1.36684 -0.0095,-2.05022 0.0024,-0.70478 -0.0016,-1.40954 -0.0064,-2.1143 -0.0094,-0.89927 5.3e-4,-1.79854 -0.0013,-2.69783 -0.0053,-0.93946 -0.0041,-1.8789 -1.06e-4,-2.81838 2.64e-4,-0.87174 -0.0013,-1.74348 7.93e-4,-2.61523 0.04328,-0.80224 -0.02653,-1.5923 -0.135776,-2.38565 -0.06326,-0.77228 -0.205271,-1.51979 -0.481748,-2.24361 -0.347096,-0.81593 -0.683593,-1.6368 -1.035505,-2.45077 -0.715632,-1.69223 -1.058921,-3.51475 -1.500605,-5.29132 -0.595527,-2.26898 -0.603076,-1.92332 -4.100052,-2.89369 -0.147688,-0.041 -0.0316,0.30563 -0.02924,0.45888 0.0029,0.18927 0.03002,0.3774 0.04504,0.5661 0.136684,1.16985 0.398881,2.3214 0.684993,3.46253 0.288862,1.25052 0.783976,2.43663 1.25943,3.62433 0.414544,1.08333 0.773438,2.1892 1.079008,3.30812 0.298148,0.85575 0.517043,1.72496 0.62869,2.62373 -5.3e-4,0.10912 0.0097,0.21884 -0.0016,0.32737 -0.01172,0.11215 -0.05591,0.35791 -0.153516,0.30145 -0.06753,-0.0391 -0.188566,-0.23655 -0.11879,-0.20166 2.823331,1.41189 4.097924,2.5179 2.790473,1.42245 -0.682832,-0.71941 -1.335223,-1.45581 -1.858061,-2.29985 -0.422439,-0.68275 -0.579908,-1.4648 -0.666435,-2.25086 -0.109516,-0.71773 -0.2325,-1.43455 -0.389062,-2.14373 -0.376655,-1.90046 0.09941,-1.23497 -3.65947,-2.34553 -0.180496,-0.0533 0.115533,0.35831 0.1788,0.53557 0.09277,0.25992 0.192834,0.51719 0.28925,0.77578 0.592887,1.78875 1.15782,3.5849 1.918539,5.3106 0.401656,0.83404 0.863412,1.63249 1.208567,2.49219 0.237894,0.6096 0.55912,1.17069 0.720177,1.80754 0.04124,0.27866 0.03135,0.56178 -0.0191,0.8385 -0.0074,0.0408 -0.05449,0.15503 -0.03249,0.11994 0.05164,-0.0824 0.03554,-0.30684 0.123095,-0.26451 1.165466,0.56351 2.239695,1.29892 3.359544,1.94838 -0.117806,-0.69061 -0.09811,-1.40134 -0.103203,-2.10047 0.0019,-1.22058 -0.01103,-2.43622 -0.10622,-3.65323 -0.127513,-1.20579 -0.328737,-2.39688 -0.603687,-3.57686 -0.194103,-0.79222 -0.487867,-1.55554 -0.836564,-2.29151 -0.413743,-0.81325 -0.804114,-1.63874 -1.239907,-2.44048 -0.382839,-0.71593 -0.728297,-1.44793 -1.133316,-2.15224 -0.460661,-0.78106 -0.974399,-1.52927 -1.467842,-2.28977 -0.466416,-0.76553 -1.014635,-1.47206 -1.461725,-2.24967 -0.477131,-0.77775 -0.975156,-1.54226 -1.436341,-2.32963 -0.492403,-0.75528 -1.07243,-1.4451 -1.68411,-2.10552 -1.593098,-1.56589 -3.626929,-2.63745 -5.654572,-3.53897 -0.784542,-0.34173 -1.622446,-0.48136 -2.469004,-0.54735 -0.835141,-0.004 -1.680437,-0.0888 -2.509329,0.0307 -0.950931,0.16221 -1.854992,0.5631 -2.738856,0.94066 -0.871217,0.44557 -1.767901,0.84662 -2.602635,1.35886 -0.11041,0.064 -0.216365,0.13642 -0.331232,0.19203 -0.104039,0.0504 -0.317682,0.15213 -0.451625,0.0765 -0.05032,-0.0284 -0.15113,-0.1689 -0.100258,-0.14146 3.260359,1.75838 3.870433,2.9605 3.177878,1.6789 -0.112675,-0.7048 0.427712,-1.35396 0.87647,-1.84227 0.50252,-0.43764 1.0878,-0.71122 1.732065,-0.86151 1.033428,-0.0795 2.056755,-0.24536 3.088005,-0.34837 1.053092,-0.0778 2.107454,-0.18114 3.144383,0.0554 0.793093,0.16652 1.556887,0.43163 2.33962,0.6342 0.110273,0.0418 0.221075,0.0822 0.330816,0.12534 0.189717,0.0746 0.392462,0.11905 0.57303,0.21367 0.09176,0.0481 0.34068,0.23484 0.250259,0.18428 -2.742822,-1.5336 -4.077187,-2.43553 -2.752747,-1.55026 0.67681,0.41333 1.286902,0.91484 1.873629,1.44519 0.633386,0.53089 1.148434,1.14538 1.60673,1.82738 0.500774,0.59897 0.821229,1.31104 1.254958,1.95466 0.580636,0.79919 1.121783,1.62461 1.576731,2.50175 0.475549,0.93303 0.890585,1.89626 1.286815,2.86519 0.320249,0.88451 0.648123,1.76456 0.838483,2.68743 0.0402,0.46329 0.104119,1.20641 -0.499499,1.28582 -1.254204,-0.83554 0.538969,0.36732 2.976845,1.60516 0.124876,0.0634 -0.215204,-0.18038 -0.310771,-0.28275 -0.342339,-0.36673 -0.582102,-0.80783 -0.821854,-1.24333 -0.396687,-0.76493 -0.557824,-1.60675 -0.639694,-2.45562 -0.05926,-0.77807 0.01855,-1.557 -0.143227,-2.32346 -0.206581,-0.74506 -0.503086,-1.46421 -0.821012,-2.16804 -0.41904,-0.94642 -0.943415,-1.82762 -1.484622,-2.70707 -0.561669,-0.85208 -1.207352,-1.64888 -1.937933,-2.36092 -0.819256,-0.84058 -1.768988,-1.52477 -2.726185,-2.19592 -0.03828,-0.0505 -1.115396,-0.75566 -0.726218,-0.79262 0.574281,-0.1285 1.076019,0.20718 1.567987,0.47176 -5.785754,-3.399839 -2.420358,-1.54507 -1.304684,-0.37955 0.22061,0.31316 0.939425,0.87306 0.725848,1.32376 -0.466657,-0.15173 -0.426951,-0.48081 -0.927259,0.0948 -1.14096,1.81858 1.018691,1.56078 3.157648,2.63023 -0.05628,-0.70418 -0.0019,-1.40231 -0.144912,-2.09746 -0.50479,-1.62675 -2.463861,-4.34849 -4.38019,-3.29344 -0.526807,0.55701 -0.572879,1.25833 -0.622573,1.98605 -0.02676,0.47177 -0.03574,0.94422 -0.045,1.41655 0,0 3.505203,1.79228 3.505203,1.79228 v 0 c 0.0041,-0.46649 0.0075,-0.93314 0.03251,-1.39913 0.03036,-0.44547 -0.01619,-1.20274 0.385789,-1.51115 0.972164,0.96553 -0.01823,-0.0306 -3.147224,-1.85686 -0.07353,-0.0429 0.138041,0.10184 0.194413,0.16563 0.252894,0.28618 0.365837,0.65386 0.515454,0.99678 0.210259,0.66483 0.155789,1.34519 0.139231,2.03539 1.458283,0.83804 3.279662,3.37158 3.607189,1.77439 0.03957,-0.19299 0.05499,-0.39717 0.18564,-0.5548 0.302794,-0.11934 0.620712,0.30309 0.998315,-0.21618 0.331661,-0.66915 -0.08739,-1.24988 -0.539737,-1.7573 -1.422453,-1.66557 -3.575841,-2.53844 -5.412411,-3.607523 -0.616789,-0.276087 -1.21139,-0.523872 -1.843644,-0.150992 -0.652793,0.624342 -0.158361,1.049055 0.418082,1.493995 0.974188,0.63758 1.940121,1.30695 2.755924,2.1442 0.75838,0.66277 1.381064,1.45508 1.982361,2.26091 0.524663,0.87432 1.089271,1.71442 1.481278,2.66132 0.336454,0.67343 0.614328,1.38532 0.845476,2.1004 0.245602,0.73339 0.129675,1.49855 0.179742,2.26081 0.05542,0.89436 0.218038,1.78444 0.588251,2.6066 0.910799,1.83812 2.643147,4.07582 5.03093,3.73968 0.66612,-0.39206 0.798026,-1.02786 0.753732,-1.76848 -0.172564,-0.95473 -0.507159,-1.85474 -0.833316,-2.76587 -0.375372,-0.98107 -0.790641,-1.95152 -1.261496,-2.89076 -0.431433,-0.89837 -0.962811,-1.73684 -1.53701,-2.5507 -0.470408,-0.62836 -0.760074,-1.34663 -1.257554,-1.95221 -0.235643,-0.3254 -0.417449,-0.68789 -0.671751,-0.99907 -0.290282,-0.35521 -0.271928,-0.27123 -0.600786,-0.59652 -0.102807,-0.10169 -0.19717,-0.21157 -0.295757,-0.31736 -0.600003,-0.51874 -1.157607,-1.09283 -1.853872,-1.48941 -1.616837,-1.1385 -3.301246,-2.26493 -5.208667,-2.82266 -0.775279,-0.2235 -1.551474,-0.443254 -2.345039,-0.594803 -1.066403,-0.145108 -2.140288,-0.05627 -3.209009,0.03603 -1.048793,0.118184 -2.097334,0.251055 -3.143036,0.386323 -0.691102,0.21212 -1.327782,0.54621 -1.850273,1.05473 -0.542229,0.61503 -1.050687,1.36124 -1.094666,2.20331 0.515419,2.42379 3.050394,3.07958 4.608049,2.0165 0.824876,-0.49081 1.695458,-0.89889 2.557558,-1.3193 0.867296,-0.35614 1.750465,-0.73387 2.690754,-0.83396 0.820521,-0.0512 1.646063,-0.0253 2.465475,0.0354 0.821412,0.0959 1.626026,0.27943 2.374683,0.6435 1.462683,0.71325 0.575678,0.29416 -2.537333,-1.52552 -0.131371,-0.0768 0.265224,0.1495 0.39392,0.23069 0.349504,0.2205 0.407291,0.27799 0.72767,0.55099 0.124195,0.10583 0.246258,0.21414 0.36939,0.32121 0.612121,0.63978 1.174827,1.30561 1.699091,2.01798 0.471463,0.78309 0.949796,1.56142 1.449895,2.3271 0.148828,0.26586 0.278381,0.54297 0.441018,0.80061 0.318074,0.50387 0.746813,0.93589 1.013143,1.47296 0.495787,0.75145 0.984705,1.50651 1.471088,2.26375 0.396904,0.71059 0.785503,1.42052 1.142595,2.15098 0.442294,0.79381 0.834324,1.60975 1.237885,2.42395 0.375473,0.6998 0.651905,1.44997 0.877935,2.21028 0.28874,1.1682 0.549418,2.3354 0.663787,3.53735 0.09326,1.20335 0.119266,2.40452 0.08543,3.61152 0.0042,0.71993 0.0044,1.44001 0.02548,2.1597 2.944353,1.88716 3.676775,3.45366 3.719153,0.80344 -0.127434,-0.67713 -0.397076,-1.25989 -0.703855,-1.8725 -0.353227,-0.87804 -0.753742,-1.70541 -1.235192,-2.52454 -0.806251,-1.70337 -1.436563,-3.47422 -1.947462,-5.28926 -0.08742,-0.24839 -0.179748,-0.4951 -0.262266,-0.74516 -0.05428,-0.16449 -0.0029,-0.40353 -0.148008,-0.49811 -4.301855,-2.80397 -3.79725,-3.08747 -3.475019,-1.07901 0.158329,0.69636 0.263972,1.39848 0.412155,2.09737 0.0582,0.83454 0.21295,1.66895 0.594145,2.42178 0.166505,0.26292 0.304195,0.54384 0.478208,0.80185 0.388554,0.57611 0.957572,1.00957 1.342322,1.58973 1.112588,1.19359 4.593037,4.08297 4.653269,1.39769 -0.08632,-0.92234 -0.275132,-1.82387 -0.617112,-2.68821 -0.313565,-1.13028 -0.647821,-2.2574 -1.068713,-3.35296 -0.475358,-1.16927 -0.989142,-2.33474 -1.267666,-3.57036 -0.291666,-1.12303 -0.581049,-2.25206 -0.715034,-3.40701 -0.01712,-0.1706 -0.04205,-0.3406 -0.05137,-0.51181 -0.0064,-0.11767 0.103712,-0.29032 0.0042,-0.3535 -1.125033,-0.71455 -2.366825,-1.22737 -3.52674,-1.88379 -0.05959,-0.0337 0.157461,-0.0448 0.205375,0.004 0.185531,0.18941 0.42994,1.0893 0.466005,1.20142 0.466823,1.76909 0.788596,3.58967 1.394026,5.31488 0.372398,0.80065 0.67868,1.62982 1.037537,2.43593 0.297791,0.69108 0.47802,1.40087 0.522468,2.15545 0.110487,0.77814 0.213066,1.54908 0.163247,2.33815 0.0019,0.87198 5.3e-4,1.74395 7.94e-4,2.61593 0.0039,0.93943 0.0051,1.87882 -1.82e-4,2.81823 -0.0019,0.89891 0.0079,1.79781 -0.0011,2.6967 -0.0044,0.70397 -0.0082,1.40797 -0.0011,2.11194 -0.0024,0.68186 0.0089,1.36364 0.0075,2.0455 -5.29e-4,0.70748 -0.0024,1.41806 -0.112001,2.11896 -0.215135,1.19758 -0.615823,2.34341 -1.064416,3.47257 -0.329671,0.93019 -0.668393,1.85429 -0.975987,2.7906 -0.208214,0.71001 -0.528764,1.38205 -0.721344,2.09805 -0.241916,0.75084 -0.32331,1.53571 -0.59064,2.2801 -0.154763,0.58699 -0.39194,1.14734 -0.648438,1.69662 -0.261617,0.55897 -0.388919,1.16047 -0.603049,1.7376 -0.219802,0.63357 -0.40617,1.27807 -0.609925,1.91673 -0.252333,0.64549 -0.495734,1.29165 -0.668153,1.96413 -0.220424,0.64772 -0.416988,1.29659 -0.774446,1.88868 -0.396528,0.69448 -0.86664,1.37619 -1.468022,1.90757 -0.634889,0.57438 -1.258067,1.15906 -1.972759,1.63625 -0.600549,0.46034 -1.238526,0.85507 -1.973922,1.06323 -0.738584,0.15811 -1.485106,0.2341 -2.240793,0.17022 -0.816459,-0.041 -1.630362,-0.11236 -2.440956,-0.21996 -0.908677,-0.0956 -1.818195,-0.0642 -2.730751,-0.0594 -0.772472,-0.008 -1.578293,0.0286 -2.302005,-0.28409 7.16357,4.19919 3.176953,2.03301 2.39526,1.35549 -0.444455,-0.38522 -0.837425,-0.83331 -1.209146,-1.28685 -0.244726,-0.30097 -0.510307,-0.58527 -0.743447,-0.89531 -0.04667,-0.0621 -0.501817,-0.80317 -0.577364,-0.82292 -0.05457,-0.0143 -0.09454,0.0616 -0.141816,0.0923 0.71841,1.08521 0.02558,0.0198 -3.137347,-1.81305 -0.08705,-0.0504 0.164303,0.11615 0.24638,0.17433 0.233891,0.1658 0.259487,0.16191 0.447339,0.39136 0.07307,0.0892 0.134268,0.18759 0.201403,0.28138 0.530011,0.60441 1.00385,1.24231 1.362501,1.9649 0.207912,0.29306 0.399534,0.65934 0.646414,0.92064 1.121246,1.18675 4.011684,0.38751 4.202854,2.52197 0.58488,0.31794 1.139581,0.42758 1.8059,0.33475 0.704247,-0.0515 1.404768,-0.14909 2.06639,-0.41021 0.81312,-0.31231 1.623219,-0.62993 2.413765,-0.99686 0.964168,-0.45106 2.003131,-0.58788 3.009458,-0.9219 0.763368,-0.29429 1.491274,-0.59789 1.900309,-1.35307 0.04972,-0.0954 0.111813,-0.18524 0.149146,-0.2861 0.579469,-1.56556 -2.956142,-3.53323 -3.810561,-1.98742 -0.362786,0.4994 -0.776484,0.96285 -1.091769,1.4967 -0.406035,0.55944 -0.861277,1.08127 -1.34293,1.57681 -0.502015,0.45018 -1.035042,0.88945 -1.692431,1.08612 -0.647925,0.11836 -1.268558,0.0591 -1.879063,-0.20416 -0.678894,-0.30571 -1.337275,-0.65897 -2.077228,-0.8065 -0.164345,-0.047 -0.837393,-0.23733 -0.993719,-0.29057 -0.172217,-0.0587 -0.663178,-0.29269 -0.509868,-0.19474 5.226402,3.33924 3.223469,1.93496 2.090536,1.19976 -0.808693,-0.68591 -1.561181,-1.42593 -2.333804,-2.15148 -0.693465,-0.59958 -1.43967,-1.12937 -2.150423,-1.70777 -0.743225,-0.72379 -1.44504,-1.48299 -1.8265,-2.46558 -0.440161,-1.37714 -0.0019,-0.0977 -3.520096,-2.02726 -0.03396,-0.0186 0.0796,0.0248 0.101356,0.0568 0.172704,0.25436 0.193104,0.61127 0.340688,0.87737 0.237144,0.80324 0.572418,1.5579 1.118817,2.20463 1.177902,1.1338 3.1036,1.97372 4.292878,2.61872 0.358212,0.19427 0.715907,0.0281 0.928508,-0.27064 0.03195,-0.10506 0.08995,-0.20552 0.09583,-0.31516 0.0313,-0.5828 -0.560559,-1.30428 -0.901803,-1.72382 -0.43811,-0.54318 -0.84655,-1.10754 -1.349057,-1.59503 -0.426808,-0.43989 -0.912154,-0.82566 -1.309547,-1.29932 -0.364898,-0.34867 -0.822421,-0.56496 -1.189321,-0.91286 -0.31034,-0.47691 -0.578988,-0.97612 -0.880062,-1.45335 -0.208974,-0.45719 -0.362599,-0.93063 -0.419862,-1.4288 0.306165,0.0352 1.133229,0.49501 0.707855,0.23577 -5.47388,-3.33609 -3.288747,-2.04547 -2.193515,-1.21837 0.333857,0.41094 0.309425,0.35012 0.581732,0.81012 0.0755,0.12753 0.143415,0.2594 0.213376,0.39005 0.04884,0.0912 0.05249,0.22536 0.143004,0.27547 1.183765,0.65534 2.424531,1.20206 3.631293,1.81402 0.03501,0.0178 -0.07588,-0.0202 -0.113813,-0.0303 -0.574276,-0.46436 -0.847122,-1.18108 -1.37949,-1.68746 -0.448334,-0.49843 -0.953672,-0.95248 -1.246929,-1.56794 -0.379798,-0.63617 -0.419825,-1.35644 -0.391406,-2.08467 -5.29e-4,-0.26598 0.03976,-1.08964 0.01342,-1.10744 -4.616413,-3.1198 -3.64848,-3.23884 -3.44097,-1.58009 0.01236,0.11313 -0.01061,0.23605 0.03705,0.33939 0.02207,0.0478 0.102622,0.0301 0.146717,0.0589 0.04899,0.0321 0.09374,0.073 0.12764,0.12068 0.180274,0.25386 0.263197,0.5671 0.287671,0.87202 -7.94e-4,0.7798 0.0045,1.56318 -0.09302,2.33822 -0.252944,1.52163 -0.100978,0.17728 3.426492,2.12729 0.04864,0.0269 -0.114986,-0.0304 -0.149403,-0.074 -0.215426,-0.27317 -0.252198,-0.68116 -0.479321,-0.95131 -0.269121,-0.6247 -0.456285,-1.28172 -0.790769,-1.87683 -1.052531,-1.88982 -2.480712,-2.44063 -4.690509,-3.48329 -0.182756,-0.043 -0.316016,-0.0795 -0.502751,-0.10291 -0.08007,-0.01 -0.308673,-0.0624 -0.241437,-0.0178 7.205861,4.78269 3.460668,2.87136 3.05948,1.72937 -0.01042,-0.81708 -0.01257,-1.6357 0.04083,-2.45141 0.06634,-0.65403 0.142279,-1.25615 0.691425,-1.68921 0.150256,-0.1135 0.280013,-0.24157 0.471995,-0.28213 0.07927,-0.0168 0.311208,0.0431 0.243046,-8e-4 -1.030105,-0.66185 -2.114804,-1.23493 -3.159641,-1.87327 -0.08252,-0.0504 0.19204,0.0495 0.269449,0.10751 0.09351,0.07 0.152512,0.177 0.228764,0.2655 0.402598,0.86425 0.564182,1.81844 0.984682,2.67792 0.543946,1.15783 1.307155,2.19609 1.846839,3.35777 0.380849,0.89028 0.723932,1.7954 1.074986,2.69754 0.418267,0.93975 0.903476,1.84977 1.361554,2.7704 0.02548,0.0489 0.306615,0.59594 0.32634,0.60635 2.25707,1.19178 4.216418,3.1191 3.607752,1.18913 -0.254651,-0.60833 -0.464897,-1.23051 -0.757555,-1.82434 -0.34235,-0.77196 -0.652227,-1.54788 -0.866177,-2.36813 -0.33551,-0.90027 -0.75551,-1.76971 -1.000331,-2.70238 -0.359172,-1.17385 -0.646856,-2.36906 -1.025909,-3.53744 -0.201798,-0.95308 -0.632431,-1.84419 -0.768355,-2.81758 -0.215694,-1.10859 -0.413208,-2.22094 -0.62279,-3.33078 -0.255928,-1.28937 -0.381867,-2.58906 -0.312227,-3.90589 -0.0048,-1.40003 -0.01905,-2.80013 0.0019,-4.20011 0.0061,-1.04764 -0.0013,-2.09524 -0.0024,-3.14288 0.0063,-0.95048 0.005,-1.90201 0.06627,-2.85094 0.08876,-1.09444 0.254508,-2.17989 0.537292,-3.24252 0.224819,-1.07505 0.532823,-2.13004 0.766181,-3.2032 0.271584,-1.06814 0.540266,-2.14392 0.954307,-3.16729 0.416679,-0.86983 0.838234,-1.73977 1.322808,-2.57412 0.30167,-0.5619 0.683268,-1.06968 1.039386,-1.59739 0.510948,-0.76088 0.906103,-1.59464 1.461635,-2.32717 0.529376,-0.84783 1.015191,-1.72289 1.583614,-2.54587 0,0 -3.41666,-2.00206 -3.41666,-2.00206 z" /><path
       style="fill:#000000;stroke-width:0.264583"
       id="path2517"
       d="m 132.16484,99.86379 c -0.91869,-0.0024 -1.83126,-0.164434 -2.74639,-0.247785 -0.79656,-0.05982 -1.59548,-0.113107 -2.39049,-0.02249 -0.89633,0.104288 -1.39805,0.30525 -2.03416,0.937285 -0.46373,0.52858 -0.6422,1.21257 -0.95356,1.82734 -0.36425,0.77315 -0.56627,1.61133 -0.74346,2.44438 -0.16077,0.81204 -0.35929,1.61425 -0.47861,2.43402 -0.0848,0.82787 -0.31521,1.63745 -0.55593,2.43201 -0.005,0.0134 -0.15725,0.44174 -0.23112,0.49566 -0.0236,0.0172 -0.0502,-0.0968 -0.024,-0.0841 1.13167,0.54852 2.21071,1.20728 3.36606,1.70398 0.0915,0.0394 -0.0567,-0.19142 -0.0754,-0.2893 -0.0195,-0.10164 -0.026,-0.20533 -0.039,-0.308 -0.0632,-0.76158 -0.0369,-1.52673 -0.0345,-2.28998 0.0114,-0.68062 0.0117,-1.36132 0.0152,-2.04201 0.009,-0.65729 -0.024,-1.31595 0.0285,-1.97162 0.0264,-0.1006 0.0506,-0.20183 0.0793,-0.30178 0.007,-0.0234 0.10886,-0.34217 0.12971,-0.39838 0.0136,-0.0367 0.0811,-0.0905 0.0461,-0.10814 -3.61504,-1.82355 -2.84212,-2.76697 -3.7507,-1.50719 -0.34263,0.55628 -0.78853,1.03863 -1.21176,1.53442 -0.48608,0.50259 -0.89538,1.06777 -1.32238,1.61924 -0.39055,0.49733 -0.73559,1.02975 -1.08197,1.55866 -0.44389,0.65046 -0.58547,1.39769 -0.67301,2.16385 -0.0275,0.86562 -0.0983,1.72325 -0.19551,2.5837 -0.10678,0.97811 -0.14686,1.96092 -0.17331,2.94386 -0.0142,0.9121 -0.0128,1.82434 -0.0157,2.73652 -0.002,0.72469 -0.003,1.44939 -0.004,2.17409 0.049,0.67807 -0.0806,1.33971 -0.18539,2.00513 -0.10634,0.80307 -0.12194,1.61375 -0.1316,2.42255 -0.001,0.15167 0.003,0.3035 -0.004,0.455 -0.008,0.17053 0.0563,0.40956 -0.0852,0.50505 -0.0274,0.0185 -0.0166,-0.11316 0.013,-0.0985 3.4447,1.70442 3.85542,3.03047 3.3674,1.6176 -0.11062,-0.76957 -0.10754,-1.55102 -0.11305,-2.3271 -0.0557,-0.72208 -0.17326,-1.43815 -0.3463,-2.14097 -0.16583,-0.64261 -0.23481,-1.30225 -0.37145,-1.95068 -0.14782,-0.65402 -0.21115,-1.32097 -0.25072,-1.98886 -0.0368,-0.59001 -0.008,-1.18146 -0.0211,-1.77158 -3.34728,-2.07468 -3.71751,-2.82147 -3.83975,-0.39354 0.0274,0.92154 -0.0561,1.83253 -0.14358,2.74838 -0.0549,1.19977 -0.16683,2.3902 -0.31396,3.58149 -0.0817,0.94849 -0.20811,1.87777 -0.41671,2.80642 -0.19374,0.91841 -0.49553,1.80623 -0.64838,2.73347 -0.1086,0.92395 -0.12631,1.85396 -0.13804,2.78302 -0.007,0.805 -10e-4,1.61003 -10e-4,2.41505 -2.6e-4,0.70438 -7.9e-4,1.40877 -0.001,2.11316 8e-4,0.85887 0.009,1.71768 0.0119,2.57656 0.005,0.8496 -0.0381,1.70079 0.0232,2.54874 0.0885,0.62556 0.19688,1.24632 0.24976,1.87637 0.01,0.62123 0.16552,1.22012 0.35515,1.80693 0.20395,0.69185 0.328,1.40489 0.46762,2.11202 0.0919,0.65908 0.3006,1.29555 0.54569,1.91191 0.32821,0.72644 0.51461,1.50459 0.76582,2.25894 0.25205,0.74786 0.66144,1.43334 1.03978,2.12344 0.34803,0.63908 0.72186,1.24854 1.18317,1.81213 0.43894,0.56945 0.95065,1.07367 1.38588,1.6459 0.30325,0.4523 0.56065,0.94269 0.72857,1.46136 0.0966,0.51236 0.28183,0.98718 0.52293,1.44637 0.2622,0.46235 0.61533,0.87253 0.9437,1.29081 0.36052,0.49278 0.80539,0.88044 1.31707,1.20658 1.7545,1.54761 3.12387,1.88209 4.93912,2.571 0.31073,0.25026 0.72061,0.2643 1.07287,0.40412 0.0757,0.0301 0.27801,0.17 0.2072,0.12968 -1.09287,-0.62231 -2.18237,-1.2505 -3.27356,-1.87576 0.41814,-0.26495 -0.66311,-0.11981 -0.7261,-0.1172 -0.64836,0.0556 -1.25073,-0.039 -1.79829,-0.39509 1.0347,0.58962 2.06354,1.18966 3.1041,1.76888 0.0889,0.0495 -0.16686,-0.11675 -0.24755,-0.17882 -0.057,-0.0438 -0.11265,-0.0896 -0.16519,-0.13869 -0.0182,-0.017 -0.0339,-0.0803 -0.046,-0.0586 -0.24847,0.4462 -0.26986,0.38125 -7.9e-4,0.47347 0.72797,0.2737 1.50267,0.46625 2.26767,0.61911 1.01513,0.1762 2.04445,0.20893 3.07187,0.23122 1.01761,0.0134 2.03531,0.008 3.05296,0.008 0.89078,0.0716 1.74281,-0.10935 2.59704,-0.33315 0.60024,-0.11621 1.18071,-0.30908 1.73849,-0.55785 1.25659,-0.672 0.2786,-0.13195 -3.49081,-2.1508 -0.0807,-0.0432 -0.17125,0.0651 -0.25837,0.0932 -0.32853,0.10616 -0.64748,0.22164 -0.98117,0.31286 -0.89307,0.30328 -1.81676,0.48569 -2.7524,0.58809 -0.88343,0.068 -1.77015,0.0671 -2.6556,0.0662 -0.29536,0.0389 -1.38118,-0.14771 -1.53352,0.16796 -0.0593,0.12298 -0.0715,0.26358 -0.10726,0.39537 2.62456,1.54827 3.01911,2.28806 5.31402,1.95594 0.88531,-0.32297 1.7219,-0.77568 2.54265,-1.2366 0.73411,-0.35549 1.42152,-0.80921 2.06327,-1.31072 0.47002,-0.45039 0.99791,-0.82964 1.49216,-1.25202 0.30282,-0.21965 0.51666,-0.52845 0.77161,-0.79527 0.0273,-0.0286 0.12806,-0.0543 0.0933,-0.073 -3.64308,-1.96083 -2.64775,-2.74589 -3.89965,-1.53283 -0.65652,0.6093 -1.31082,1.22674 -2.08119,1.69027 -0.78831,0.50194 -1.63071,0.88187 -2.53217,1.12348 -0.82228,0.17509 -1.66455,0.19816 -2.50191,0.20864 -0.7829,0.0941 -1.09029,0.65926 -0.61962,1.30639 2.30129,1.68001 3.22127,2.23264 5.51154,2.3242 1.00935,-0.22919 1.93777,-0.64539 2.80125,-1.20793 0.84351,-0.42962 1.45192,-1.13338 2.12262,-1.77557 0.64959,-0.66376 1.24068,-1.38188 1.81859,-2.10824 0.29302,-0.24268 0.67619,-1.70083 0.93748,-1.77423 -1.15215,-0.55673 -2.25795,-1.22188 -3.45645,-1.6702 -0.1122,-0.042 -0.0318,0.23811 -0.0625,0.3539 -0.0429,0.16197 -0.10027,0.3199 -0.15782,0.47726 -0.17938,0.49045 -0.4087,0.92763 -0.67664,1.3741 -0.70597,1.16103 -1.84402,1.84919 -2.98804,2.51042 -0.92352,0.54425 -1.95101,0.74586 -3.00387,0.82778 -0.91713,0.0178 -1.84679,0.10221 -2.75798,-0.0271 -0.34918,-0.0725 -0.70924,-0.0931 -1.05463,-0.18517 -0.0549,-0.0146 -0.207,-0.0908 -0.16006,-0.0588 3.40484,2.32436 2.04724,2.3253 3.65449,2.26724 0.87861,-0.1379 1.66484,-0.58797 2.45181,-0.9792 0.82147,-0.54343 1.71317,-0.96263 2.58046,-1.42411 0.70685,-0.40251 1.39437,-0.83474 2.07813,-1.27513 0.79783,-0.56577 1.45918,-1.30731 2.12294,-2.0207 0.83716,-0.89564 1.55695,-1.88277 2.44889,-2.7276 0.68679,-0.61976 1.28663,-1.32848 1.91412,-2.00695 0.27399,-0.28467 0.46212,-0.64699 0.73366,-0.93293 0.0596,-0.0628 0.11769,-0.15346 0.20393,-0.16071 0.0476,-0.004 0.0646,0.16314 0.0219,0.14171 -1.14461,-0.57402 -2.25324,-1.21716 -3.37985,-1.82574 -0.29919,1.13907 -0.90183,2.16829 -1.46656,3.19256 -0.38112,0.8306 -0.77513,1.64978 -1.237,2.43832 -0.38391,0.73849 -0.88975,1.39441 -1.37564,2.06643 -0.51534,0.62783 -1.14606,1.1733 -1.86282,1.55751 -0.71914,0.35909 -1.43564,0.74227 -2.19834,1.00118 -0.75734,0.23123 -1.54747,0.28567 -2.33386,0.31199 -0.82471,0.0163 -1.64969,0.009 -2.47452,0.009 -1.00506,-0.01 -2.01003,-1.8e-4 -3.01507,0.005 -0.68254,-0.0333 -1.3812,0.0734 -2.05919,-0.0536 -0.35937,-0.0673 -0.3406,-0.0918 -0.56326,-0.2871 1.09976,0.64991 2.19951,1.29983 3.29927,1.94974 0.0228,-0.25555 0.64796,-0.39958 0.85964,-0.39102 0.10297,0.004 0.20297,0.0359 0.30445,0.0539 0.10935,0.0234 0.222,0.0346 0.32805,0.0701 0.19785,0.0661 0.38326,0.16587 0.56777,0.26318 0.0945,0.0498 0.36712,0.21845 0.27438,0.16547 -1.04709,-0.59814 -4.18468,-2.399 -3.13751,-1.80101 1.21227,0.69228 2.42186,1.38923 3.63279,2.08384 0.59658,0.29343 1.21899,0.42449 1.87521,0.5081 1.27398,0.6295 1.50464,0.7502 -2.82423,-1.60826 -0.0727,-0.0396 0.1376,0.0954 0.19137,0.15833 0.19051,0.22306 0.16618,0.41595 0.0865,0.67217 -0.0589,0.0941 -0.11271,0.19158 -0.17668,0.2823 -0.095,0.13473 -0.24264,0.40261 -0.38182,0.31429 -0.0606,-0.0384 -0.13907,-0.23445 -0.0753,-0.2016 3.07774,1.58556 4.08222,2.81813 3.13934,1.69468 -0.16891,-0.10511 -0.15745,-1.07692 -0.20395,-1.10992 -3.31875,-2.35558 -2.18017,-2.49271 -3.85264,-2.17733 -0.55979,0.29352 -1.50772,0.59089 -1.85125,1.15813 1.17625,0.67901 2.31308,1.43142 3.52875,2.03702 0.0866,0.0432 0.16484,-0.10175 0.24389,-0.15761 0.68398,-0.48333 1.34664,-1.00418 1.99526,-1.53308 1.25672,-0.94486 2.46496,-1.95202 3.70364,-2.9201 1.07036,-0.87138 2.05133,-1.84064 3.0549,-2.78565 1.00607,-0.91779 1.96721,-1.88479 2.89369,-2.88276 0.54417,-0.74179 1.18682,-1.40298 1.74055,-2.13557 0.41653,-0.62433 0.91603,-1.18488 1.36891,-1.78093 0.52023,-0.63881 0.97529,-1.31511 1.37632,-2.03444 0.41884,-0.74401 0.63124,-1.56915 0.94931,-2.35423 0.36548,-0.7619 0.52068,-1.58374 0.61618,-2.41606 0.0727,-0.70096 0.0579,-1.40603 0.0758,-2.10936 0.006,-0.007 0.0117,-0.0134 0.0175,-0.0201 -1.18357,-0.51419 -2.31014,-1.18734 -3.55073,-1.54259 -0.16701,-0.0478 -0.009,0.34737 -0.0173,0.52088 -0.0404,0.82234 -0.13812,1.62372 -0.26481,2.43685 -0.25677,1.31611 -0.46475,2.64023 -0.70996,3.95822 -0.2466,0.91876 -0.50168,1.83518 -0.70476,2.7647 -0.15295,0.73187 -0.17675,1.5134 -0.45552,2.21487 1.18001,0.55223 2.30717,1.2354 3.54001,1.65667 0.13384,0.0457 0.0657,-0.27525 0.10552,-0.41097 0.22333,-0.76179 0.48023,-1.50969 0.67751,-2.27935 0.2602,-0.99244 0.30873,-2.01465 0.34527,-3.03404 -0.0241,-1.04772 0.0993,-2.08778 0.19871,-3.12875 0.0377,-1.0187 0.18668,-2.02525 0.32337,-3.03395 0.0627,-0.72413 0.14454,-1.43727 0.28353,-2.15066 0.35019,-2.42332 1.27823,-0.74123 -3.10863,-2.88918 0.15522,0.6287 -0.023,1.29153 -0.0988,1.92405 -0.0992,0.85254 -0.0874,1.71248 -0.1039,2.56929 -0.0623,1.75009 0.17615,0.93342 3.58354,2.29334 0.0599,0.0239 0.22389,-1.03645 0.22707,-1.05688 0.14181,-0.82997 0.25748,-1.66026 0.48655,-2.47172 0.23274,-0.72958 0.42574,-1.47294 0.61519,-2.21527 0.20118,-0.78591 0.22026,-1.59589 0.23054,-2.4019 0.0226,-1.01606 0.0106,-2.03236 0.0104,-3.04856 0.002,-0.84675 0.006,-1.6935 0.008,-2.54025 0.003,-0.72255 -0.002,-1.44507 -0.002,-2.16762 -0.003,-0.83659 -0.002,-1.67319 -0.003,-2.50979 0.005,-0.77383 -5.3e-4,-1.5477 0.004,-2.32152 0.001,-0.67056 0.002,-1.34109 0.003,-2.01166 0.0217,-0.69228 -0.13787,-1.36996 -0.23098,-2.05178 -0.10819,-0.83541 -0.45124,-1.60034 -0.82347,-2.34637 -0.36447,-0.78083 -0.75417,-1.55703 -1.02886,-2.37534 -0.22972,-0.72771 -0.51271,-1.43608 -0.68908,-2.17928 -0.12799,-0.7823 -0.24382,-1.56694 -0.41894,-2.34068 -0.13842,-0.63284 -0.43884,-1.19882 -0.77552,-1.74473 -0.52024,-0.71417 -1.0206,-1.43796 -1.46474,-2.20231 -0.50371,-0.74127 -0.81011,-1.58922 -1.30819,-2.33155 -0.46161,-0.5892 -1.04848,-1.05759 -1.62075,-1.53286 -0.49674,-0.42673 -0.80863,-0.97742 -1.33869,-1.37434 -2.27795,-1.596109 -3.32506,-2.279869 -5.64042,-2.361575 -0.79348,0.04803 -1.69888,-0.183189 -2.43953,0.190077 -0.78513,1.078858 3.23705,2.378528 4.61941,2.999998 1.45795,0.55381 4.15542,2.20516 -1.67783,-1.13143 0.40864,-3.248574 3.06569,3.06221 4.58782,2.26745 0.17128,-0.0894 0.29674,-0.29198 0.40626,-0.44145 0.95417,-2.1551 -0.67558,-1.6523 -3.37659,-2.9377 -0.3888,0.54128 -0.45885,1.2043 -0.51228,1.84913 -0.11778,2.24321 -0.31509,0.95324 3.35356,2.75298 -0.18645,-0.59721 -0.18822,-1.23895 -0.1847,-1.86017 0.003,-0.0232 0.006,-0.0464 0.008,-0.0696 0,0 -3.55819,-1.80434 -3.55819,-1.80434 v 0 c 0.004,0.0264 0.008,0.0527 0.0113,0.0791 0.0273,0.66355 0.0266,1.32998 0.12078,1.98885 3.59826,2.09615 3.68387,3.30336 3.75828,0.734 0.0345,-0.53828 0.0515,-1.1266 0.37701,-1.58047 -1.10948,-0.68 -2.22468,-1.35075 -3.32843,-2.04001 -0.0212,-0.0132 0.0681,-0.016 0.0747,0.008 0.0186,0.0681 -0.008,0.14093 -0.0148,0.21118 -0.0206,0.21849 -0.0429,0.43922 -0.14105,0.63908 -0.0722,0.0868 -0.0849,0.14943 -0.20773,0.144 -1.07237,-0.0473 -4.7347,-3.218516 2.31392,1.47665 -1.7189,-0.98563 -3.292,-2.02505 -5.11083,-2.734884 -0.31064,-0.125688 -0.61301,-0.258966 -0.91679,-0.399936 -0.0923,-0.04281 -0.3622,-0.182285 -0.27859,-0.124381 3.08928,2.139541 3.88662,1.122071 2.98532,2.183851 0.74591,-0.20837 1.54369,-0.0615 2.30447,-0.0677 0.40274,0.0298 0.8027,0.0568 1.19629,0.15448 1.30249,0.32307 3.25639,1.88961 -2.41085,-1.55858 0.39731,0.21562 0.71454,0.42923 0.95674,0.82024 0.0603,0.0973 0.0975,0.2091 0.16649,0.30048 0.0633,0.0838 0.15071,0.14631 0.22607,0.21946 0.593,0.43215 1.14631,0.91973 1.66378,1.4409 0.59579,0.68263 0.82169,1.56675 1.35791,2.29339 0.42169,0.77233 0.8905,1.51315 1.40891,2.22405 0.38886,0.46766 0.67271,1.03823 0.84675,1.62005 0.23131,0.75417 0.30504,1.5503 0.43064,2.32691 0.15183,0.76086 0.41809,1.47673 0.6643,2.21069 0.26468,0.84513 0.65843,1.63601 1.02516,2.44105 0.36419,0.70819 0.71044,1.42159 0.86156,2.21066 0.0655,0.6732 0.25898,1.33075 0.24754,2.00876 7.9e-4,0.67154 0.002,1.34305 0.003,2.01459 0.004,0.77515 -7.9e-4,1.55036 0.004,2.32552 -8e-5,0.83573 2.6e-4,1.67147 -0.003,2.50719 0,0.72214 -0.005,1.44427 -0.001,2.16641 0.003,0.8504 0.009,1.70078 0.0133,2.55117 0.003,1.01344 -0.001,2.02693 -0.008,3.04035 -0.0222,0.77445 -0.036,1.55491 -0.20856,2.31411 -0.17928,0.74007 -0.38081,1.47611 -0.60107,2.2045 -0.24896,0.82166 -0.36419,1.6656 -0.50594,2.51049 -0.26075,1.31793 0.0434,-0.25138 -0.12609,0.70052 -0.009,0.0527 -0.08,0.12798 -0.0349,0.15669 5.45661,3.46921 3.34203,3.09377 3.33488,1.5473 0.002,-0.84288 0.0135,-1.68721 0.0967,-2.52667 0.0768,-0.68675 0.24119,-1.37788 0.19189,-2.0689 -3.34887,-1.96826 -3.57198,-3.34743 -3.97175,-0.66141 -0.13684,0.72397 -0.24634,1.4433 -0.2808,2.18087 -0.11815,1.01645 -0.28922,2.02651 -0.3192,3.05135 -0.091,1.04845 -0.24436,2.09316 -0.21507,3.14802 -0.0204,0.99423 -0.0687,1.992 -0.29426,2.96455 -0.1878,0.76832 -0.42673,1.50899 -0.68754,2.2551 -0.0489,0.13976 -0.25726,0.33028 -0.14052,0.42133 1.06319,0.82917 2.28661,1.42934 3.42991,2.14401 0.23336,-0.73992 0.32232,-1.51601 0.44162,-2.27945 0.19573,-0.9357 0.4673,-1.85242 0.70286,-2.77865 0.24055,-1.3267 0.41959,-2.66263 0.67099,-3.98782 0.13848,-0.81463 0.23876,-1.6209 0.32589,-2.44194 0.0188,-0.1767 0.20658,-0.42327 0.0639,-0.52924 -1.09782,-0.81555 -2.36568,-1.37292 -3.54852,-2.05939 0.006,0.007 0.0127,0.0143 0.0191,0.0215 0.0172,0.69377 0.005,1.38886 -0.0402,2.0814 -0.075,0.79937 -0.20754,1.58833 -0.55781,2.3198 -0.31906,0.76855 -0.5242,1.57925 -0.92452,2.31502 -0.39007,0.705 -0.85569,1.35005 -1.35693,1.97968 -0.4555,0.5945 -0.95155,1.15762 -1.36346,1.78565 -0.54726,0.72018 -1.17476,1.37786 -1.70069,2.11634 -0.90897,1.00136 -1.86564,1.95713 -2.86741,2.86599 -0.99327,0.93942 -1.9733,1.89344 -3.03492,2.75722 -1.23005,0.9778 -2.43017,1.99457 -3.69404,2.92921 -0.54984,0.43039 -1.10753,0.84191 -1.6901,1.22734 -0.10812,0.0715 -0.21596,0.14416 -0.32991,0.20598 -0.0705,0.0382 -0.28652,0.046 -0.22177,0.0933 1.04768,0.76608 2.17357,1.41902 3.26036,2.12854 -0.0146,0.0116 -0.057,0.048 -0.0439,0.0348 0.0418,-0.0422 0.0826,-0.0861 0.13018,-0.12168 0.31911,-0.23857 0.71749,-0.48349 1.09917,-0.60345 0.1185,-0.0373 0.24512,-0.0405 0.36767,-0.0608 1.2913,0.47316 1.75466,0.66198 -2.88358,-1.93795 -0.0839,-0.047 0.0112,0.19205 0.0181,0.28798 0.008,0.10848 0.0447,0.57227 0.0588,0.67501 0.0131,0.0951 0.0358,0.1886 0.0537,0.2829 0.38228,1.34532 3.04189,3.24375 4.1132,2.12073 0.15038,-0.15764 0.33932,-0.47483 0.45255,-0.65235 0.0504,-0.12387 0.1205,-0.24146 0.1512,-0.37162 0.40046,-1.69814 -3.15496,-2.89134 -4.22057,-3.13872 -0.63359,-0.11551 -1.23746,-0.30863 -1.80333,-0.62242 1.04921,0.60773 4.20481,2.41693 3.14763,1.82319 -1.33201,-0.74809 -3.12516,-2.27307 -4.91533,-2.45814 -0.65087,0.0465 -1.35358,0.29604 -1.57327,0.9746 1.12944,0.74615 2.2464,1.51153 3.38831,2.23846 0.49948,0.31797 2.10206,0.0559 2.69144,0.14736 1.01322,0.006 2.02637,0.0169 3.03963,0.0144 0.83235,0.004 1.66511,0.0126 2.49712,-0.0169 0.81058,-0.0495 1.62117,-0.14371 2.39164,-0.41614 0.77059,-0.29623 1.51838,-0.66047 2.24411,-1.05306 0.73741,-0.45072 1.40553,-1.0206 1.93693,-1.70507 0.50099,-0.67647 1.01946,-1.34184 1.40662,-2.09244 0.47328,-0.78959 0.8318,-1.63052 1.21517,-2.4662 0.58872,-1.08101 1.18209,-2.16293 1.59645,-3.32585 -3.69805,-2.58946 -2.74107,-3.24665 -4.47095,-1.08216 -0.61617,0.67721 -1.215,1.37441 -1.89396,1.99052 -0.88091,0.86066 -1.57177,1.87716 -2.43269,2.75625 -0.66573,0.67503 -1.32392,1.38182 -2.10883,1.91921 -0.67787,0.42974 -1.35291,0.86322 -2.0562,1.25102 -0.86512,0.4559 -1.72637,0.91777 -2.56724,1.41754 -0.76892,0.36938 -1.53396,0.79052 -2.40184,0.85298 -1.54463,0.29429 -0.47573,0.0147 2.73506,2.4414 0.0611,0.0462 0.76183,0.1161 0.82224,0.12426 0.13337,0.018 0.26714,0.0329 0.40072,0.0494 0.92987,0.0554 1.86488,0.0231 2.79362,-0.0414 1.08934,-0.12133 2.13759,-0.39879 3.07925,-0.98347 1.1849,-0.70857 2.36161,-1.46283 3.10513,-2.66537 0.37937,-0.61928 0.67745,-1.25846 0.91123,-1.94756 0.0488,-0.14388 0.24743,-0.3432 0.12822,-0.43741 -1.07546,-0.84987 -2.31424,-1.46966 -3.47135,-2.20449 -0.4103,0.54842 -0.50032,1.29456 -0.92957,1.83918 -0.56396,0.71425 -1.13975,1.42146 -1.77883,2.07055 -0.65063,0.62926 -1.28107,1.27049 -2.08507,1.70952 -0.80473,0.514 -1.71406,0.91993 -2.67621,0.99414 -2.13945,-0.14666 -3.4863,-1.29457 1.34257,1.50912 -0.56521,-0.28532 -0.57217,-0.44405 0.14604,-0.48844 0.85713,-0.0274 1.71902,-0.0785 2.55187,-0.29947 0.91938,-0.28897 1.78461,-0.70167 2.60382,-1.21053 0.76372,-0.51446 1.43579,-1.14104 2.1158,-1.75926 1.26298,-1.19274 0.54817,-0.31709 -2.85444,-2.608 -0.0373,-0.0251 -0.0526,0.073 -0.0811,0.10782 -0.14669,0.17913 -0.28366,0.33813 -0.45312,0.49773 -0.0904,0.0851 -0.18804,0.16224 -0.28206,0.24337 -0.4978,0.40901 -1.01138,0.79736 -1.48072,1.2398 -0.6357,0.48127 -1.30785,0.9127 -2.02339,1.26652 -0.78682,0.43214 -1.58198,0.90748 -2.46505,1.10478 -1.88539,0.18082 -3.97394,-1.18306 1.60988,1.80771 -0.0824,0.0953 -0.17353,0.18357 -0.24707,0.28579 -0.0459,0.0639 0.15701,-0.0101 0.23562,-0.0125 0.38044,-0.0116 0.76157,0.0102 1.14206,-8e-4 0.89455,-0.008 1.79084,-0.0175 2.68173,-0.10664 0.94598,-0.1354 1.8733,-0.35677 2.78677,-0.63804 2.14311,-0.64261 2.08467,-0.27512 -1.83096,-2.6845 -0.54125,0.22905 -1.09867,0.40352 -1.67455,0.52407 -0.83317,0.20595 -1.67231,0.30389 -2.53253,0.25937 -1.01488,0.003 -2.02995,0.006 -3.04466,-0.015 -1.01485,-0.0298 -2.03355,-0.0817 -3.02963,-0.29342 -0.7765,-0.18695 -1.54155,-0.41533 -2.30768,-0.63767 -0.9772,-0.0794 -0.39009,0.65066 -0.0498,0.85585 1.21207,0.73084 2.44099,1.43338 3.66149,2.15007 0.61935,0.24502 1.26783,0.28861 1.92925,0.22877 0.50531,-0.0396 1.14811,-0.0604 1.19857,-0.70543 -1.17342,-0.69252 -2.33816,-1.39998 -3.52027,-2.07756 -0.39157,-0.22445 -0.91342,-0.25349 -1.29669,-0.51203 -1.42605,-0.54887 -4.05481,-1.66574 1.8689,1.30666 -0.50122,-0.3111 -1.01157,-0.58947 -1.36217,-1.08437 -0.33178,-0.3976 -0.61757,-0.82899 -0.97294,-1.20515 -0.20608,-0.45695 -0.51843,-0.86756 -0.5552,-1.38852 -0.14993,-0.56089 -0.38178,-1.08731 -0.68601,-1.58335 -0.3986,-0.61587 -0.92758,-1.10763 -1.37682,-1.68191 -0.4812,-0.54523 -0.87519,-1.09505 -1.20697,-1.74059 -0.3891,-0.66936 -0.78855,-1.35025 -1.07695,-2.06473 -0.28109,-0.75016 -0.44024,-1.54066 -0.74919,-2.28005 -0.26981,-0.58013 -0.46654,-1.20919 -0.58922,-1.83497 -0.12364,-0.71931 -0.26331,-1.43893 -0.43866,-2.14636 -0.15894,-0.56789 -0.39527,-1.12651 -0.39006,-1.72762 -0.0407,-0.63647 -0.12179,-1.2671 -0.25726,-1.89096 -0.10615,-0.83492 -0.0204,-1.68193 -0.0557,-2.52182 0.003,-0.85494 0.0113,-1.70981 0.0116,-2.56473 -7.9e-4,-0.70576 -0.002,-1.41151 -0.005,-2.11725 -0.003,-0.80466 -0.004,-1.60931 -0.005,-2.41397 0.003,-0.91097 0.0108,-1.82434 0.11178,-2.73075 0.13914,-0.92254 0.42472,-1.80655 0.62167,-2.71676 0.22171,-0.94099 0.39162,-1.87455 0.43502,-2.84352 0.14242,-1.19441 0.25397,-2.38715 0.31755,-3.58867 0.097,-0.91627 0.205,-1.82892 0.18243,-2.75251 0.0923,-2.26434 0.82878,-0.99835 -3.28335,-3.10862 0.22618,0.18013 0.0237,1.34873 0.0997,1.68377 0.0204,0.68596 0.081,1.37251 0.22533,2.04451 0.12624,0.65461 0.2178,1.3124 0.36602,1.96306 0.15647,0.68288 0.30893,1.36304 0.38592,2.06213 0.01,0.79304 0.0252,1.58584 0.0644,2.37805 0.0926,1.46684 2.96418,3.55726 3.67011,2.13521 0.0751,-0.15136 0.10152,-0.51299 0.10835,-0.63161 0.009,-0.15067 0.002,-0.30183 0.003,-0.45275 0.0134,-0.78969 0.0235,-1.58169 0.12223,-2.36642 0.10126,-0.68392 0.26044,-1.36315 0.21176,-2.0592 -0.001,-0.72653 -0.003,-1.45305 -0.007,-2.17956 -0.004,-0.91023 -0.006,-1.82053 0.008,-2.7307 0.0158,-0.97238 0.0472,-1.94553 0.15317,-2.91294 0.10133,-0.85978 0.20532,-1.71415 0.20894,-2.58143 0.0667,-0.70613 0.1738,-1.39714 0.58523,-1.9963 0.34552,-0.51982 0.69277,-1.03997 1.07797,-1.53127 0.41047,-0.55456 0.81822,-1.10991 1.30186,-1.60457 0.4299,-0.50384 0.88109,-0.99457 1.23973,-1.55308 0.94962,-1.29154 0.19627,-0.11468 -3.25225,-2.26456 -0.0208,-0.013 0.0546,-0.0714 0.0567,-0.0469 0.0118,0.14301 -0.0723,0.27778 -0.11196,0.41568 -0.0347,0.12054 -0.0724,0.24017 -0.10866,0.36025 -0.0932,0.66508 -0.0359,1.33734 -0.0525,2.0077 5.3e-4,0.68149 -0.004,1.36293 -0.006,2.04442 -0.01,0.77475 -0.0143,1.54997 0.006,2.32454 0.002,0.0194 0.0519,0.67438 0.0631,0.68238 2.6247,1.85794 3.22095,3.42121 3.93522,1.44946 0.25144,-0.80989 0.50125,-1.64017 0.5953,-2.48346 0.10326,-0.81535 0.29988,-1.60915 0.45439,-2.415 0.16528,-0.7988 0.36183,-1.60279 0.70691,-2.34453 0.29734,-0.57459 0.45675,-1.21873 0.89051,-1.71481 0.51969,-0.4925 1.15971,-0.67061 1.8693,-0.71937 0.78463,-0.0349 1.56995,0.0126 2.35213,0.0791 0.92724,0.0901 1.85232,0.23367 2.78581,0.23073 0,0 -3.20468,-2.328332 -3.20468,-2.328332 z" /><path
       style="fill:#000000;stroke-width:0.264583"
       id="path2519"
       d="m 135.53127,103.58797 c -0.13924,-0.0683 -0.28019,-0.13317 -0.4177,-0.20485 -0.16051,-0.0837 -0.31775,-0.1735 -0.47615,-0.26112 -0.15233,-0.0843 -0.60718,-0.34087 -0.45603,-0.25451 5.16302,2.94989 3.40031,2.03783 2.25763,1.15768 -0.61338,-0.42053 -1.12819,-0.90009 -1.42642,-1.58724 -0.2602,-0.66792 -0.3891,-1.36987 -0.4622,-2.07987 -0.002,-0.0334 0.0261,-0.0863 -0.004,-0.10023 -4.4282,-2.021291 -3.48258,-2.43593 -3.30929,0.0712 0.0293,0.57747 0.0179,0.29966 0.0352,0.83339 0,0 3.52273,1.77704 3.52273,1.77704 v 0 c -0.0263,-0.54367 -0.0124,-0.26094 -0.0418,-0.8482 -0.17524,-2.737195 0.21635,-1.52505 -3.80525,-3.551738 -0.0241,-0.01214 0.027,0.04678 0.0405,0.07017 0.14247,0.718693 0.16419,1.464788 0.44642,2.152048 0.2093,0.77633 0.67638,1.36252 1.34951,1.80416 0.23787,0.18382 0.44871,0.40551 0.70558,0.56167 1.68557,1.02473 3.37557,2.02652 5.1166,2.94822 0,0 -3.07497,-2.48779 -3.07497,-2.48779 z" /><g
       style="clip-rule:evenodd;fill:#ffffff;fill-rule:evenodd;stroke-linecap:round;stroke-linejoin:round;stroke-miterlimit:1.5"
       id="g2616"
       transform="matrix(0.28325269,-0.29607971,0.26889726,0.31188632,61.193286,120.01673)"><g
         transform="matrix(0.271104,0.271104,-0.271104,0.271104,27.7989,-235.455)"
         id="g2586"
         style="fill:#ffffff">

<g
   transform="matrix(0.8,0,0,0.8,486.714,140.248)"
   id="g2568"
   style="fill:#ffffff">

<g
   transform="matrix(0.684389,0,0,0.684389,157.806,305.723)"
   id="g2546"
   style="fill:#ffffff">

<path
   d="M 472.035,408.836 C 487.168,584.477 500,768.478 500,887.413 c 0,42.069 -34.155,76.223 -76.224,76.223 -42.069,0 -76.224,-34.154 -76.224,-76.223 0,-118.935 12.832,-302.936 27.966,-478.577 z"
   style="fill:#ffffff"
   id="path2544" />

</g>

<g
   transform="matrix(2.30539,-2.30539,2.30539,2.30539,-129.666,431.591)"
   id="g2550"
   style="fill:#ffffff">

<path
   d="m 92.161,158.932 6.866,6.867 c -23.824,28.317 -49.231,57.533 -66.885,75.187 -6.244,6.245 -16.384,6.245 -22.628,0 -5.09,-5.09 -6.031,-12.767 -2.823,-18.814 0.727,1.372 1.668,2.66 2.823,3.814 6.244,6.245 16.384,6.245 22.628,0 15.966,-15.966 38.274,-41.389 60.019,-67.054 z"
   style="fill:#ffffff"
   id="path2548" />

</g>

<g
   transform="matrix(0.684389,0,0,0.684389,157.806,305.723)"
   id="g2554"
   style="fill:#ffffff">

<path
   d="M 472.035,408.836 C 487.168,584.477 500,768.478 500,887.413 c 0,42.069 -34.155,76.223 -76.224,76.223 -42.069,0 -76.224,-34.154 -76.224,-76.223 0,-118.935 12.832,-302.936 27.966,-478.577 z"
   style="fill:#ffffff;stroke:#000000;stroke-width:35.73px"
   id="path2552" />

</g>

<g
   transform="matrix(0.993384,0,0,0.684389,-323.255,282.751)"
   id="g2558"
   style="fill:#ffffff">

<path
   d="m 725.111,442.403 c 5.033,-60.001 10.407,-119.544 15.711,-175.779 h 70.803 c 5.304,56.235 10.678,115.778 15.711,175.779 z"
   style="fill:#ffffff"
   id="path2556" />

</g>

<g
   transform="matrix(2.30539,-2.30539,2.30539,2.30539,-129.666,431.591)"
   id="g2562"
   style="fill:#ffffff">

<path
   d="m 117.322,131.911 8.261,8.261 c -7.205,9.49 -14.885,19.486 -22.707,29.476 L 92.161,158.932 c 5.733,-7.323 17.573,-17.228 25.161,-27.021 z"
   style="fill:#ffffff"
   id="path2560" />

</g>

<g
   transform="matrix(0.993384,0,0,0.684389,-323.255,282.751)"
   id="g2566"
   style="fill:#ffffff">

<path
   d="m 725.111,442.403 c 5.033,-60.001 10.407,-119.544 15.711,-175.779 h 70.803 c 5.304,56.235 10.678,115.778 15.711,175.779 z"
   style="fill:#ffffff;stroke:#000000;stroke-width:28.67px"
   id="path2564" />

</g>

</g>

<path
   d="m 825.231,469.924 c -56.3,-9.562 -100.304,-58.794 -106.102,-120.015 -0.424,-1.746 -0.648,-3.563 -0.648,-5.429 0,-1.503 0.016,-3.056 0.046,-4.65 -0.03,-1.229 -0.046,-2.459 -0.046,-3.693 h 0.141 c 2.039,-64.551 25.586,-194.529 25.586,-194.529 0,0 18.623,102.799 24.18,170.956 0.74,13.206 12.315,23.556 26.343,23.556 10e-4,0.017 10e-4,0.017 0.002,0.017 14.038,0 25.621,-10.357 26.362,-23.572 4.972,-61.186 20.488,-150.287 23.611,-167.876 v -3.081 c 0,0 0.095,0.529 0.275,1.535 0.18,-1.006 0.275,-1.535 0.275,-1.535 v 3.081 c 3.123,17.589 18.639,106.69 23.611,167.876 0.741,13.215 12.324,23.572 26.362,23.572 10e-4,0 10e-4,0 0.002,-0.017 14.028,0 25.603,-10.35 26.343,-23.556 5.557,-68.157 24.18,-170.956 24.18,-170.956 0,0 23.547,129.978 25.586,194.529 h 0.141 c 0,1.234 -0.015,2.464 -0.046,3.693 0.03,1.594 0.046,3.147 0.046,4.65 0,1.866 -0.224,3.683 -0.648,5.429 -5.798,61.221 -49.802,110.453 -106.102,120.015 v 42.504 h -39.5 z"
   style="fill:#ffffff"
   id="path2570" />

<g
   transform="matrix(1.84431,-1.84431,1.84431,1.84431,382.982,485.521)"
   id="g2574"
   style="fill:#ffffff">

<path
   d="m 226.513,73.111 c 10.892,-7.953 19.293,-13.777 19.293,-13.777 0,0 -28.854,41.621 -45.801,59.674 l 0.038,0.038 c -0.334,0.335 -0.672,0.664 -1.013,0.989 -0.424,0.44 -0.841,0.865 -1.248,1.273 -0.506,0.506 -1.06,0.938 -1.648,1.296 -18.169,15.025 -43.446,16.443 -61.301,3.772 l -11.523,11.523 -10.709,-10.709 3.529,-3.528 2.285,6.132 16.418,-16.418 c 17.855,12.671 43.132,11.253 61.301,-3.772 0.588,-0.358 1.142,-0.79 1.648,-1.296 0.407,-0.408 0.824,-0.833 1.248,-1.273 0.341,-0.325 0.679,-0.654 1.013,-0.989 l -0.038,-0.038 c 7.659,-8.158 17.748,-21.129 26.508,-32.897 z"
   style="fill:#ffffff"
   id="path2572" />

</g>

<g
   transform="matrix(1.84431,-1.84431,1.84431,1.84431,384.826,505.808)"
   id="g2578"
   style="fill:#ffffff">

<path
   d="M 198.689,46.29 C 207.636,39.747 215,34.574 217.576,32.774 l 0.836,-0.835 c 0,0 -0.118,0.169 -0.342,0.491 0.322,-0.224 0.491,-0.342 0.491,-0.342 l -0.835,0.836 c -3.911,5.599 -23.76,33.818 -38.985,51.763 -3.202,-3.805 -3.311,-9.287 -0.126,-12.85 6.373,-7.501 13.57,-16.825 20.074,-25.547 z"
   style="fill:#ffffff"
   id="path2576" />

</g>

<g
   transform="matrix(1.84431,-1.84431,1.84431,1.84431,384.826,502.12)"
   id="g2582"
   style="fill:#ffffff">

<path
   d="m 171.873,18.471 c 10.891,-7.952 19.293,-13.777 19.293,-13.777 0,0 -22.702,32.747 -39.661,52.748 -3.204,-3.802 -3.314,-9.284 -0.13,-12.846 6.511,-7.668 13.884,-17.24 20.498,-26.125 z"
   style="fill:#ffffff"
   id="path2580" />

</g>

<path
   d="m 825.231,469.924 c -56.3,-9.562 -100.304,-58.794 -106.102,-120.015 -0.424,-1.746 -0.648,-3.563 -0.648,-5.429 0,-1.503 0.016,-3.056 0.046,-4.65 -0.03,-1.229 -0.046,-2.459 -0.046,-3.693 h 0.141 c 2.039,-64.551 25.586,-194.529 25.586,-194.529 0,0 18.623,102.799 24.18,170.956 0.74,13.206 12.315,23.556 26.343,23.556 10e-4,0.017 10e-4,0.017 0.002,0.017 14.038,0 25.621,-10.357 26.362,-23.572 4.972,-61.186 20.488,-150.287 23.611,-167.876 v -3.081 c 0,0 0.095,0.529 0.275,1.535 0.18,-1.006 0.275,-1.535 0.275,-1.535 v 3.081 c 3.123,17.589 18.639,106.69 23.611,167.876 0.741,13.215 12.324,23.572 26.362,23.572 10e-4,0 10e-4,0 0.002,-0.017 14.028,0 25.603,-10.35 26.343,-23.556 5.557,-68.157 24.18,-170.956 24.18,-170.956 0,0 23.547,129.978 25.586,194.529 h 0.141 c 0,1.234 -0.015,2.464 -0.046,3.693 0.03,1.594 0.046,3.147 0.046,4.65 0,1.866 -0.224,3.683 -0.648,5.429 -5.798,61.221 -49.802,110.453 -106.102,120.015 v 42.504 h -39.5 z"
   style="fill:#ffffff;stroke:#000000;stroke-width:19.56px"
   id="path2584" />

</g></g><g
       style="fill:#000000;stroke-width:1.63861"
       id="g2668"
       transform="matrix(-0.27766306,-0.00387285,0.00383671,-0.2802785,144.28488,195.20229)"><g
         id="g2656"
         style="stroke-width:1.63861">
	<path
   d="m 262.956,320.284 c -5.663,-4.974 -9.154,-8.198 -9.252,-11.329 L 258.839,27.938 C 259,20.523 256.233,13.521 251.046,8.22 245.859,2.919 238.917,0 231.5,0 c -7.417,0 -14.358,2.919 -19.544,8.221 -5.187,5.301 -7.955,12.303 -7.793,19.692 l 5.135,281.044 c -0.099,3.13 -3.591,6.354 -9.252,11.327 -10.011,8.794 -23.721,20.838 -23.721,45.825 0,29.194 4.29,52.341 12.749,68.797 9.448,18.38 24.119,28.094 42.426,28.094 18.307,0 32.979,-9.715 42.427,-28.095 8.459,-16.456 12.749,-39.603 12.749,-68.797 0,-24.986 -13.71,-37.03 -23.72,-45.824 z m -2.369,107.763 C 253.685,441.474 244.171,448 231.5,448 c -12.671,0 -22.185,-6.527 -29.086,-19.953 -7.255,-14.113 -11.089,-35.531 -11.089,-61.939 0,-18.198 9.466,-26.514 18.62,-34.555 6.999,-6.147 14.235,-12.504 14.354,-22.503 0.001,-0.076 0,-0.151 -0.001,-0.227 L 219.159,27.612 c -0.073,-3.347 1.177,-6.508 3.518,-8.901 2.341,-2.393 5.475,-3.711 8.823,-3.711 3.348,0 6.482,1.318 8.823,3.711 2.342,2.393 3.591,5.554 3.518,8.927 l -5.138,281.185 c -0.001,0.076 -0.002,0.151 -0.001,0.227 0.119,9.999 7.355,16.356 14.354,22.503 9.154,8.042 18.62,16.357 18.62,34.555 0,26.409 -3.834,47.827 -11.089,61.939 z"
   id="path2648"
   style="stroke-width:1.63861" />
	<path
   d="m 238.85,27.931 c 0,-1.98 -0.8,-3.91 -2.19,-5.31 -1.4,-1.39 -3.33,-2.19 -5.31,-2.19 -1.97,0 -3.91,0.8 -5.3,2.19 -1.4,1.4 -2.2,3.33 -2.2,5.31 0,1.97 0.8,3.9 2.2,5.3 1.39,1.4 3.33,2.2 5.3,2.2 1.98,0 3.91,-0.8 5.31,-2.2 1.39,-1.4 2.19,-3.33 2.19,-5.3 z"
   id="path2650"
   style="stroke-width:1.63861" />
	<path
   d="m 247.613,376.52 c -0.165,3.656 -1.896,36.006 -11.9,46.012 -2.929,2.929 -2.928,7.678 0.001,10.606 1.464,1.464 3.383,2.196 5.303,2.196 1.92,0 3.839,-0.732 5.304,-2.197 13.004,-13.006 15.715,-43.455 16.277,-55.942 0.187,-4.138 -3.017,-7.644 -7.155,-7.83 -4.15,-0.19 -7.645,3.017 -7.83,7.155 z"
   id="path2652"
   style="stroke-width:1.63861" />
	<path
   d="m 236.639,338.877 c -2.733,3.112 -2.427,7.851 0.685,10.584 2.879,2.529 5.404,4.789 7.148,6.835 1.484,1.74 3.59,2.634 5.711,2.634 1.721,0 3.451,-0.589 4.862,-1.792 3.152,-2.688 3.529,-7.421 0.842,-10.573 -2.394,-2.807 -5.339,-5.453 -8.663,-8.373 -3.112,-2.732 -7.85,-2.427 -10.585,0.685 z"
   id="path2654"
   style="stroke-width:1.63861" />
</g></g><path
       style="fill:#ffffff;stroke-width:0.264583"
       d="m 78.24617,188.93058 c -1.216104,-0.88923 -1.218512,-1.73297 -0.107579,-37.80295 1.552389,-50.40324 1.724316,-45.73839 -1.816259,-49.27897 -4.426612,-4.426606 -5.664253,-6.843518 -5.661343,-11.055562 0.0063,-8.979878 2.816331,-17.793858 6.447393,-20.222536 2.27846,-1.52397 6.622997,-1.576173 8.86595,-0.106532 2.80199,1.835925 5.020601,7.307081 5.899467,14.548179 1.032589,8.507691 0.393674,10.646435 -4.794461,16.049331 l -3.917077,4.07923 -0.04273,41.52428 c -0.02355,22.83835 -0.244713,40.80955 -0.491622,39.93599 -0.6282,-2.2226 -2.333334,-3.19464 -3.665114,-2.08937 -2.115502,1.75571 -0.375841,5.07397 2.182601,4.16308 0.560546,-0.19958 0.738002,-0.0365 0.456247,0.41939 -0.618199,1.00029 -1.845654,0.94046 -3.355473,-0.16356 z m 2.201386,-90.773576 c 0.304959,-2.154157 -2.323861,-4.840263 -4.489741,-4.587604 -2.29608,0.267845 -2.599055,2.776793 -0.593169,4.911955 1.966145,2.092855 4.766019,1.914195 5.08291,-0.324351 z m -2.676683,-12.97657 c 0.481674,-2.905379 1.454441,-6.2652 2.161725,-7.466269 1.613191,-2.739479 1.635575,-4.515957 0.06742,-5.355207 -2.840673,-1.520286 -6.310604,4.560154 -7.142083,12.515275 -0.515885,4.935755 -0.08035,6.066449 2.233268,5.798009 1.710902,-0.198509 1.849067,-0.481662 2.679674,-5.491808 z"
       id="path2739" /></g></svg>
